<svg id="Layer_1" height="25" viewBox="0 0 512 512" width="25" xmlns="http://www.w3.org/2000/svg" data-name="Layer 1"><path d="m49.281 384.521h193.3v45.286l-4.525 2.293a39.891 39.891 0 1 0 35.889 0l-4.523-2.294v-45.285h193.278a49.356 49.356 0 0 0 49.3-49.281v-281.54a49.353 49.353 0 0 0 -49.3-49.293h-413.419a49.34 49.34 0 0 0 -49.281 49.293v281.54a49.343 49.343 0 0 0 49.281 49.281zm219.719-156.921 33.133-33.142-33.133-33.126a13.42 13.42 0 0 1 18.98-18.977l33.132 33.123 33.141-33.122a13.42 13.42 0 1 1 18.982 18.976l-33.144 33.126 33.143 33.142a13.421 13.421 0 0 1 -18.98 18.979l-33.142-33.142-33.134 33.143a13.42 13.42 0 1 1 -18.978-18.98zm-134.164-27.417v-48.383a13.417 13.417 0 0 1 26.834 0v48.387a23.524 23.524 0 1 0 47.048 0v-48.387a13.421 13.421 0 0 1 26.841 0v48.387a50.362 50.362 0 1 1 -100.723 0z" fill-rule="evenodd"/></svg>