<svg id="Capa_1" enable-background="new 0 0 512 512" height="25" viewBox="0 0 512 512" width="25" xmlns="http://www.w3.org/2000/svg"><g><path d="m507.997 415.584-41.636-41.658 36.618-21.659c10.4-6.174 8.264-21.881-3.422-25.009l-188.234-50.575c-10.195-2.736-19.493 6.621-16.771 16.767l50.56 188.318c3.122 11.671 18.834 13.837 24.993 3.423l21.671-36.638 41.627 41.649c5.358 5.379 14.047 5.327 19.354 0l55.241-55.258c5.336-5.349 5.336-14.011-.001-19.36z"/><path d="m166.032 237.703c0-8.284-6.714-15-14.995-15h-44.814c-8.282 0-14.996 6.716-14.996 15s6.714 15 14.996 15h44.814c8.281 0 14.995-6.716 14.995-15z"/><path d="m170.961 301.651-31.652 31.735c-5.849 5.865-5.838 15.362.024 21.213 5.86 5.846 15.354 5.844 21.207-.025l31.652-31.735c5.849-5.865 5.838-15.362-.024-21.213-5.864-5.851-15.358-5.839-21.207.025z"/><path d="m315.825 237.704c0-8.939-1.981-17.419-5.504-25.045l106.199-86.677c9.928 7.311 22.177 11.642 35.425 11.642 33.03 0 59.902-26.88 59.902-59.92s-26.872-59.92-59.902-59.92-59.892 26.88-59.892 59.92c0 8.936 1.979 17.414 5.5 25.039l-106.204 86.681c-20.819-15.326-49.504-15.714-70.85 0l-106.204-86.681c3.52-7.625 5.5-16.103 5.5-25.039 0-33.04-26.862-59.92-59.892-59.92-33.031 0-59.903 26.88-59.903 59.92s26.872 59.92 59.902 59.92c13.247 0 25.497-4.331 35.425-11.642l106.199 86.677c-3.523 7.627-5.504 16.107-5.504 25.045 0 33.04 26.872 59.92 59.902 59.92s59.901-26.88 59.901-59.92z"/><path d="m255.923 327.624c-8.278 0-14.996 6.71-14.996 15v44.82c0 8.29 6.718 15 14.996 15s14.995-6.71 14.995-15v-44.82c.001-8.29-6.717-15-14.995-15z"/></g></svg>