<?xml version="1.0" encoding="UTF-8"?>
<!-- Generator: Adobe Illustrator 24.2.3, SVG Export Plug-In . SVG Version: 6.00 Build 0)  -->
<svg xmlns="http://www.w3.org/2000/svg" xmlns:xlink="http://www.w3.org/1999/xlink" version="1.1" id="Capa_1" x="0px" y="0px" viewBox="0 0 512.004 512.004" style="enable-background:new 0 0 512.004 512.004;" xml:space="preserve" width="512" height="512">
<g>
	<path d="M501.002,294h-5.333V43.444c0-6.075-4.925-11-11-11H267.002V11c0-6.075-4.925-11-11-11s-11,4.925-11,11v21.444H27.336   c-6.075,0-11,4.925-11,11V294h-5.333c-6.075,0-11,4.925-11,11v65.333c0,6.075,4.925,11,11,11h131.127L98.702,497.138   c-2.79,7.003,2.806,14.997,10.299,14.865c4.453,0,8.645-2.725,10.301-7.141l46.323-123.529h180.754l46.323,123.529   c1.656,4.417,5.848,7.141,10.301,7.141c7.49,0.125,13.091-7.856,10.298-14.865c0,0-43.426-115.804-43.426-115.804h131.127   c6.075,0,11-4.925,11-11V305C512.002,298.925,507.077,294,501.002,294z M38.336,54.444h435.333V294H38.336V54.444z    M490.002,359.333h-468V316h468V359.333z"/>
	<path d="M143.802,105.138c-3.569-9.45-17.017-9.482-20.6,0c0,0-49,130.666-49,130.666c-2.133,5.688,0.749,12.029,6.438,14.162   c5.688,2.132,12.029-0.749,14.162-6.438L104.375,218h58.254l9.573,25.529c2.127,5.746,8.622,8.559,14.162,6.437   c5.688-2.133,8.57-8.474,6.437-14.162L143.802,105.138z M112.625,196l20.877-55.672L154.379,196H112.625z"/>
	<g>
		<path style="fill:#33CCCC;" d="M263.761,250.667h-32.258c-6.075,0-11-4.925-11-11V109c0-6.075,4.925-11,11-11h33.091    c40.101,0.286,58.149,49.413,28.562,76.103C323.295,200.877,303.807,250.635,263.761,250.667z M242.502,228.667h21.258    c11.86,0.245,22.322-10.205,22.075-22.075c0.237-11.432-9.808-21.492-21.242-21.258c0,0-22.091,0-22.091,0V228.667z     M242.502,163.333h21.258c11.859,0.245,22.323-10.206,22.075-22.075c0.237-11.432-9.808-21.492-21.242-21.258    c0,0-22.091,0-22.091,0V163.333z"/>
	</g>
	<path d="M386.669,120c11.947,0,21.667,9.72,21.667,21.667c0.583,14.603,21.43,14.575,22,0c-2.389-57.91-84.936-57.931-87.334,0   c0,0,0,65.333,0,65.333c0,24.078,19.589,43.667,43.683,43.667c24.069,0,43.65-19.581,43.65-43.65   c0.01-6.081-4.919-11.009-11-11.008c-6.075,0-11,4.933-11,11.008c-1.18,28.711-42.145,28.729-43.334-0.017c0,0,0-65.333,0-65.333   C365.002,129.72,374.722,120,386.669,120z"/>
</g>















</svg>
