<?xml version="1.0" encoding="UTF-8"?>
<!-- Generator: Adobe Illustrator 24.2.3, SVG Export Plug-In . SVG Version: 6.00 Build 0)  -->
<svg xmlns="http://www.w3.org/2000/svg" xmlns:xlink="http://www.w3.org/1999/xlink" version="1.1" id="Capa_1" x="0px" y="0px" viewBox="0 0 512 512" style="enable-background:new 0 0 512 512;" xml:space="preserve" width="512" height="512">
<g>
	<path d="M500.986,0H11.013c-6.075,0-11,4.925-11,11s4.925,11,11,11H44.74v322.425c0,6.075,4.925,11,11,11h168.165L86.11,493.221   c-4.295,4.296-4.295,11.261,0,15.557c2.148,2.148,4.963,3.222,7.778,3.222s5.63-1.074,7.778-3.222L245,365.444v135.528   c0,6.075,4.925,11,11,11s11-4.925,11-11V365.445l143.27,143.27c2.148,2.148,4.963,3.222,7.778,3.222s5.63-1.074,7.778-3.222   c4.295-4.296,4.295-11.261,0-15.557L288.094,355.425h168.165c6.075,0,11-4.925,11-11V22h33.728c6.075,0,11-4.925,11-11   S507.061,0,500.986,0z M445.258,333.425H66.74V22h378.518V333.425z"/>
	<g>
		<path style="fill:#33CCCC;" d="M105.552,266.986c-2.815,0-5.63-1.074-7.778-3.222c-4.295-4.296-4.295-11.261,0-15.557l82.34-82.34    c4.296-4.296,11.261-4.296,15.557,0L256,226.199L390.537,91.661c4.296-4.295,11.261-4.296,15.557,0    c4.295,4.296,4.295,11.261,0,15.557L263.778,249.533c-2.063,2.062-4.861,3.222-7.778,3.222s-5.715-1.159-7.778-3.222l-60.33-60.33    l-74.562,74.562C111.182,265.913,108.366,266.986,105.552,266.986z"/>
	</g>
</g>















</svg>
