<?xml version="1.0" encoding="UTF-8"?>
<!-- Generator: Adobe Illustrator 26.0.3, SVG Export Plug-In . SVG Version: 6.00 Build 0)  -->
<svg xmlns="http://www.w3.org/2000/svg" xmlns:xlink="http://www.w3.org/1999/xlink" version="1.1" id="Capa_1" x="0px" y="0px" viewBox="0 0 512 512" style="enable-background:new 0 0 512 512;" xml:space="preserve" width="512" height="512">
<path style="fill:#79CACA;" d="M468.469,87.062c-24.003,0-43.531-19.528-43.531-43.531C424.938,19.528,444.466,0,468.469,0  C492.472,0,512,19.528,512,43.531C512,67.534,492.472,87.062,468.469,87.062z M468.469,22c-11.872,0-21.531,9.659-21.531,21.531  c0,11.872,9.659,21.531,21.531,21.531c11.873,0,21.531-9.659,21.531-21.531C490,31.659,480.341,22,468.469,22z"/>
<path style="fill:#79CACA;" d="M43.531,512C19.528,512,0,492.472,0,468.469c0-24.003,19.528-43.531,43.531-43.531  c24.003,0,43.531,19.528,43.531,43.531C87.062,492.472,67.534,512,43.531,512z M43.531,446.938  c-11.873,0-21.531,9.659-21.531,21.531C22,480.341,31.659,490,43.531,490c11.872,0,21.531-9.659,21.531-21.531  C65.062,456.597,55.403,446.938,43.531,446.938z"/>
<path style="fill:#79CACA;" d="M468.469,512c-24.003,0-43.531-19.528-43.531-43.531c0-24.003,19.528-43.531,43.531-43.531  c24.003,0,43.531,19.528,43.531,43.531C512,492.472,492.472,512,468.469,512z M468.469,446.938  c-11.872,0-21.531,9.659-21.531,21.531c0,11.873,9.659,21.531,21.531,21.531c11.873,0,21.531-9.659,21.531-21.531  C490,456.597,480.341,446.938,468.469,446.938z"/>
<path style="fill:#79CACA;" d="M256,462.187c-6.075,0-11-4.925-11-11v-146.39c0-6.075,4.925-11,11-11  c20.841,0,37.797-16.956,37.797-37.797c0-6.075,4.925-11,11-11h146.39c6.075,0,11,4.925,11,11  C462.187,369.691,369.691,462.187,256,462.187z M267,314.783v125.079c92.816-5.496,167.366-80.045,172.862-172.862H314.783  C310.27,291.168,291.168,310.27,267,314.783z"/>
<g>
	<path d="M409.293,118.264l37.187-37.187c-6.417-3.773-11.784-9.14-15.557-15.557l-37.187,37.187   C357.197,69.843,308.896,49.813,256,49.813C142.309,49.813,49.813,142.309,49.813,256c0,52.896,20.03,101.197,52.894,137.736   L65.52,430.923c6.417,3.773,11.784,9.14,15.557,15.557l37.187-37.187c36.539,32.864,84.84,52.894,137.736,52.894   c-6.075,0-11-4.925-11-11v-11.345C148.543,434.13,71.813,353.866,71.813,256c0-46.83,17.578-89.626,46.469-122.16l88.398,88.398   c-6.603,9.615-10.477,21.243-10.477,33.763c0,29.212,21.065,53.569,48.797,58.75v-9.953c0-6.075,4.925-11,11-11   c-20.841,0-37.797-16.956-37.797-37.797s16.956-37.797,37.797-37.797s37.797,16.956,37.797,37.797c0-6.075,4.925-11,11-11h9.953   c-5.181-27.732-29.538-48.797-58.749-48.797c-12.52,0-24.148,3.875-33.763,10.477l-88.398-88.398   C166.374,89.391,209.17,71.813,256,71.813c97.866,0,178.124,76.73,183.836,173.187h11.35c6.075,0,11,4.925,11,11   C462.187,203.104,442.157,154.803,409.293,118.264z"/>
	<path d="M393.736,409.293l37.187,37.187c3.758-6.4,9.156-11.798,15.557-15.557l-37.187-37.187   C404.385,399.192,399.192,404.385,393.736,409.293z"/>
</g>















</svg>
